<svg xmlns="http://www.w3.org/2000/svg" viewBox="0 0 512 512" width="512" height="512">
  <defs>
    <linearGradient id="bg" x1="0%" y1="0%" x2="100%" y2="100%">
      <stop offset="0%" stop-color="#27272a" />
      <stop offset="100%" stop-color="#09090b" />
    </linearGradient>
    <linearGradient id="red" x1="0%" y1="0%" x2="100%" y2="100%">
      <stop offset="0%" stop-color="#f43f5e" />
      <stop offset="100%" stop-color="#e11d48" />
    </linearGradient>
    <linearGradient id="blue" x1="0%" y1="0%" x2="100%" y2="100%">
      <stop offset="0%" stop-color="#38bdf8" />
      <stop offset="100%" stop-color="#0284c7" />
    </linearGradient>
  </defs>
  <rect width="512" height="512" rx="115" fill="url(#bg)" />
  <rect width="512" height="512" rx="115" fill="none" stroke="#3f3f46" stroke-width="8" />
  <rect x="136" y="146" width="240" height="260" rx="24" fill="none" stroke="url(#red)" stroke-width="32" />
  <path d="M 216 146 V 104 C 216 90 226 80 240 80 H 272 C 286 80 296 90 296 104 V 146" fill="none" stroke="url(#red)" stroke-width="32" stroke-linecap="round" />
  <rect x="186" y="130" width="140" height="32" rx="16" fill="url(#red)" />
  <line x1="196" y1="230" x2="316" y2="230" stroke="#94a3b8" stroke-width="24" stroke-linecap="round" />
  <line x1="196" y1="290" x2="266" y2="290" stroke="#94a3b8" stroke-width="24" stroke-linecap="round" />
  <path d="M 240 370 L 290 410 L 410 270" fill="none" stroke="url(#blue)" stroke-width="36" stroke-linecap="round" stroke-linejoin="round" />
</svg>